<svg id="Layer_1" data-name="Layer 1" xmlns="http://www.w3.org/2000/svg" viewBox="0 0 255.12 255.12"><path d="M151.5,181.84c-39.13-.3-61.22-33-70.58-50s-17.33-15.22-15.63-21.68c2.75-10.5,25.6,8.81,36,21s25.44,20.31,45.59,21.08c-8.3-13.35-34.82-21.27-26.65-25.57,7.54-4,31.59.81,65.16,15.33,11.52,5,19.74,14.14,25.58,24,86.73-98.26-8.21-176.89-77.44-118.67C99.79,19,59.91,23.17,38,46.28a151.24,151.24,0,0,0,44.83,7.08c39.14.3,61.22,33,70.58,50S170.72,118.55,169,125c-2.76,10.5-25.6-8.81-36-21S107.55,83.7,87.41,82.92c8.3,13.35,34.82,21.27,26.65,25.57-7.55,4-31.59-.81-65.17-15.33-11-4.75-19-13.32-24.78-22.7-11.46,38.83,11.78,98.7,109.45,157.15,22.63-13.54,41.26-27.16,56.4-40.58a153.69,153.69,0,0,0-38.46-5.19" fill="#22c55e"/></svg>